<svg height="512" width="512" xmlns="http://www.w3.org/2000/svg"><path d="M283.07 416l-84.14 30-3.19 11.15C191.21 473.02 174 486 157.5 486h167z" fill="#adaca7"/><path d="M316.26 457.15L304.5 416 256 386l-48.5 30-8.57 30h84.14l3.19 11.15C290.79 473.02 308 486 324.5 486h30c-16.5 0-33.71-12.98-38.24-28.85z" fill="#8f8f8b"/><path d="M444.5 416h30c16.5 0 30-13.5 30-30v-60l-60-60z" fill="#adaca7"/><path d="M7.5 386c0 16.5 13.5 30 30 30h407c16.5 0 30-13.5 30-30V206L7.5 326z" fill="#cbc9c2"/><path d="M474.5 26h-30l30 300h30V56c0-16.5-13.5-30-30-30z" fill="#404242"/><path d="M474.5 56c0-16.5-13.5-30-30-30h-407c-16.5 0-30 13.5-30 30v270h467v-30L256 175.987z" fill="#565959"/><path d="M474.5 55.995l-29.994-.021c0 .005-188.506 120.013-188.506 120.013S444.502 295.998 444.5 296l29.999-.02c.001 0-.002-239.981.001-239.985z" fill="#4b88d5"/><path d="M444.5 55.995l-406.912-.022c-.025.012-.046 240.022-.088 240.027l406.99-.02c.005 0-.032-239.981.01-239.985z" fill="#69a7ff"/><circle cx="256" cy="371" fill="#fff" r="15"/><path d="M474.5 18.5h-437C16.822 18.5 0 35.322 0 56v330c0 20.678 16.822 37.5 37.5 37.5h160.057l-9.027 31.594c-3.625 12.688-17.835 23.406-31.03 23.406H101c-4.142 0-7.5 3.357-7.5 7.5s3.358 7.5 7.5 7.5h310c4.142 0 7.5-3.357 7.5-7.5s-3.358-7.5-7.5-7.5h-56.5c-13.195 0-27.405-10.719-31.03-23.406l-9.027-31.594H474.5c20.678 0 37.5-16.822 37.5-37.5V56c0-20.678-16.822-37.5-37.5-37.5zm-437 15h437c12.407 0 22.5 10.094 22.5 22.5v262.5H15V56c0-12.406 10.093-22.5 22.5-22.5zm271.547 425.715c2.058 7.205 6.149 13.824 11.512 19.285H191.441c5.363-5.461 9.454-12.081 11.512-19.285l10.204-35.715h85.685zM474.5 408.5h-437C25.093 408.5 15 398.406 15 386v-52.5h482V386c0 12.406-10.093 22.5-22.5 22.5z"/><path d="M37.5 303.5h437a7.5 7.5 0 007.5-7.5V56a7.5 7.5 0 00-7.5-7.5h-437A7.5 7.5 0 0030 56v105c0 4.143 3.358 7.5 7.5 7.5s7.5-3.357 7.5-7.5V63.5h422v225H45V191c0-4.143-3.358-7.5-7.5-7.5S30 186.857 30 191v105a7.5 7.5 0 007.5 7.5zm218.5 45c-12.407 0-22.5 10.094-22.5 22.5s10.093 22.5 22.5 22.5 22.5-10.094 22.5-22.5-10.093-22.5-22.5-22.5zm0 30c-4.136 0-7.5-3.364-7.5-7.5s3.364-7.5 7.5-7.5 7.5 3.364 7.5 7.5-3.364 7.5-7.5 7.5z"/></svg>